<?xml version="1.0" standalone="no"?>
<!DOCTYPE svg PUBLIC "-//W3C//DTD SVG 20010904//EN"
 "http://www.w3.org/TR/2001/REC-SVG-20010904/DTD/svg10.dtd">
<svg version="1.0" xmlns="http://www.w3.org/2000/svg"
 width="997.000000pt" height="997.000000pt" viewBox="0 0 997.000000 997.000000"
 preserveAspectRatio="xMidYMid meet">
<metadata>
Created by potrace 1.11, written by Peter Selinger 2001-2013
</metadata>
<g transform="translate(0.000000,997.000000) scale(0.100000,-0.100000)"
fill="#000000" stroke="none">
<path d="M5320 9419 c-25 -5 -58 -11 -75 -13 -119 -15 -343 -104 -465 -183
-127 -84 -247 -194 -336 -311 -24 -31 -47 -62 -52 -68 -5 -5 -20 -30 -33 -55
-13 -24 -27 -46 -32 -47 -4 -2 -5 -7 -2 -12 4 -7 -55 -32 -105 -45 -8 -2 -16
-4 -17 -5 -2 -2 -6 -3 -10 -5 -5 -1 -15 -5 -23 -8 -8 -4 -56 -22 -106 -41
-124 -47 -418 -178 -422 -188 -2 -4 -9 -8 -17 -8 -7 0 -70 -31 -141 -70 -70
-38 -132 -70 -136 -70 -4 0 -8 -4 -8 -10 0 -5 -6 -10 -13 -10 -8 0 -22 -9 -32
-20 -10 -11 -22 -20 -26 -20 -4 0 -39 -21 -76 -47 -198 -137 -330 -271 -406
-415 -20 -38 -35 -68 -33 -68 2 0 -2 -20 -9 -44 -17 -55 -13 -166 9 -232 22
-72 84 -162 163 -241 76 -76 143 -129 155 -126 4 2 8 -1 8 -5 0 -8 48 -31 120
-60 26 -10 167 -9 206 1 104 27 122 40 89 67 -21 17 -45 69 -50 108 -7 57 31
120 105 172 29 20 211 23 1495 21 1058 -2 1550 -14 1870 -45 43 -5 42 -22 -2
-23 -21 -1 -56 -4 -78 -6 -43 -5 -104 -12 -200 -24 -33 -3 -75 -7 -92 -7 -18
-1 -33 -3 -33 -6 0 -3 -12 -5 -26 -5 -15 1 -47 -2 -73 -6 -25 -4 -80 -10 -121
-14 -41 -4 -86 -8 -100 -10 -14 -2 -47 -6 -75 -9 -27 -4 -63 -8 -80 -10 -16
-3 -61 -8 -100 -11 -38 -4 -79 -9 -90 -11 -10 -2 -49 -6 -85 -9 -36 -4 -90
-10 -120 -15 -30 -5 -86 -12 -124 -15 -38 -3 -79 -8 -90 -10 -12 -3 -43 -7
-71 -10 -67 -6 -155 -17 -174 -20 -9 -2 -22 -4 -28 -4 -7 -1 -13 -6 -13 -12 0
-5 -8 -29 -19 -52 -10 -23 -29 -67 -42 -97 -13 -30 -28 -58 -33 -62 -6 -4 -8
-8 -4 -8 9 0 -63 -153 -76 -162 -6 -4 -7 -8 -3 -8 5 0 -19 -52 -52 -115 -33
-63 -57 -115 -53 -115 4 0 2 -4 -3 -8 -6 -4 -19 -25 -30 -47 -11 -22 -26 -48
-34 -57 -8 -10 -11 -18 -7 -18 4 0 -2 -13 -13 -29 -12 -16 -21 -31 -21 -34 0
-8 -162 -296 -244 -432 -39 -66 -75 -128 -81 -137 -5 -10 -41 -67 -80 -128
-38 -61 -75 -118 -80 -128 -36 -61 -149 -228 -156 -230 -5 -2 -9 -7 -9 -12 0
-8 -86 -139 -108 -166 -5 -5 -14 -20 -21 -31 -6 -12 -17 -27 -23 -35 -7 -7
-26 -33 -43 -56 -26 -39 -151 -210 -172 -237 -4 -6 -42 -55 -83 -110 -41 -55
-77 -102 -80 -105 -3 -3 -50 -61 -105 -130 -54 -69 -124 -154 -154 -190 -31
-36 -74 -88 -96 -114 -22 -27 -53 -64 -70 -82 -16 -17 -49 -54 -72 -80 -44
-52 -64 -75 -176 -198 -105 -116 -588 -599 -691 -691 -48 -44 -107 -98 -131
-120 -49 -46 -74 -68 -165 -145 -36 -30 -76 -65 -90 -77 -14 -11 -59 -49 -100
-83 -41 -34 -84 -69 -95 -78 -11 -9 -74 -59 -140 -110 -66 -51 -127 -99 -136
-106 -27 -22 -133 -100 -169 -125 -19 -13 -37 -26 -40 -30 -3 -3 -34 -26 -70
-50 -36 -25 -66 -48 -68 -53 -2 -4 -7 -8 -12 -8 -4 0 -34 -18 -66 -40 -33 -22
-104 -70 -159 -106 -55 -37 -119 -80 -143 -95 -23 -16 -46 -29 -50 -29 -16 0
-40 -55 -32 -75 13 -34 190 -195 290 -265 19 -13 37 -27 40 -30 10 -13 132
-82 217 -124 148 -74 329 -125 456 -129 20 -1 37 -4 37 -7 0 -3 38 -5 85 -5
47 0 85 2 85 5 0 3 19 6 42 6 42 2 99 9 148 19 14 3 37 7 51 10 14 3 57 15 95
27 38 12 74 22 79 24 28 5 162 63 258 110 119 60 259 145 387 238 83 60 100
72 143 110 12 10 38 30 57 45 19 14 51 42 71 61 21 19 61 56 91 81 93 82 306
299 423 433 11 12 38 43 60 68 60 67 116 135 179 213 32 39 63 77 70 86 8 9
64 83 125 165 61 82 115 154 119 159 4 6 18 26 32 45 13 19 27 37 30 40 5 5
52 72 148 215 34 50 65 95 70 101 5 5 15 21 22 34 7 13 17 29 22 34 5 6 27 40
50 76 23 36 56 88 74 115 92 142 254 412 254 423 0 6 4 12 8 14 7 3 47 69 114
188 11 19 34 60 51 90 55 96 76 134 99 180 13 25 26 47 29 50 3 3 12 19 21 35
8 17 34 66 58 110 138 257 186 351 188 369 0 5 4 12 9 15 9 7 71 131 71 145 0
5 5 12 10 15 9 6 51 96 51 108 -1 3 3 9 8 12 7 5 55 98 58 111 0 3 16 37 34
75 18 39 37 80 42 93 5 12 13 22 19 22 6 0 7 -6 1 -17 -13 -26 -79 -195 -83
-213 -2 -8 -5 -17 -8 -20 -7 -7 -50 -111 -55 -130 -1 -8 -14 -40 -28 -70 -22
-50 -37 -86 -42 -100 -4 -12 -22 -55 -103 -245 -47 -110 -85 -206 -85 -212 0
-7 -4 -13 -8 -13 -6 0 -16 -23 -24 -59 -2 -7 -8 -18 -14 -24 -6 -6 -11 -19
-11 -29 0 -10 -4 -18 -10 -18 -5 0 -9 -3 -8 -7 2 -10 -17 -56 -42 -105 -11
-21 -17 -38 -13 -38 3 0 -2 -9 -12 -20 -10 -11 -15 -20 -12 -20 5 0 -23 -64
-98 -225 -52 -111 -64 -139 -67 -155 -2 -8 -6 -17 -9 -20 -3 -3 -21 -39 -41
-80 -19 -41 -61 -129 -92 -194 -32 -66 -58 -124 -59 -130 -1 -6 -5 -15 -10
-21 -4 -5 -73 -140 -154 -300 -151 -299 -185 -365 -232 -450 -15 -27 -42 -77
-60 -110 -99 -179 -186 -331 -194 -336 -5 -3 -9 -10 -10 -15 -1 -10 -24 -51
-117 -201 -36 -58 -76 -124 -89 -146 -13 -23 -27 -44 -30 -47 -3 -3 -35 -50
-71 -105 -35 -55 -78 -119 -95 -141 -16 -23 -37 -52 -45 -64 -51 -74 -247
-324 -310 -393 -19 -22 -64 -69 -98 -105 -96 -101 -101 -116 -49 -165 48 -46
236 -161 342 -210 33 -16 72 -35 88 -43 15 -8 27 -12 27 -8 0 3 6 1 14 -5 11
-9 92 -38 131 -47 6 -1 37 -9 70 -18 90 -25 138 -30 280 -30 111 1 220 8 220
15 0 1 9 3 20 4 49 7 198 61 279 102 232 116 434 294 645 568 17 22 41 53 54
69 12 16 24 34 26 40 2 6 20 34 40 61 46 64 57 82 78 122 9 18 20 33 25 33 4
0 8 4 8 9 0 6 15 36 34 68 61 106 196 365 196 378 0 2 17 39 38 82 21 43 38
80 38 83 1 3 11 27 22 54 12 27 22 50 22 53 0 6 38 94 50 115 6 10 10 23 10
29 0 6 7 25 15 42 8 18 23 57 34 87 11 30 36 100 56 155 38 105 106 312 109
330 1 5 5 15 8 21 4 6 9 23 12 38 3 15 10 33 15 40 6 7 9 15 6 18 -3 3 2 24
10 48 8 24 17 52 20 64 2 12 14 53 25 91 17 58 71 260 85 315 2 8 11 44 20 80
9 36 18 76 21 90 2 14 7 32 10 40 3 8 8 26 10 40 3 14 9 41 14 60 9 34 18 75
25 115 2 11 11 52 20 90 21 95 28 129 41 204 3 18 8 43 10 55 4 19 13 73 18
103 1 7 6 16 10 20 4 4 5 -10 2 -32 -7 -49 -15 -138 -21 -224 -3 -36 -7 -72
-10 -80 -2 -9 -7 -45 -11 -81 -13 -138 -22 -221 -29 -260 -2 -14 -7 -47 -10
-75 -3 -27 -8 -61 -10 -75 -4 -23 -11 -81 -20 -155 -2 -16 -6 -43 -9 -60 -3
-16 -7 -50 -11 -75 -3 -25 -8 -56 -10 -70 -8 -44 -14 -84 -20 -130 -3 -25 -7
-52 -10 -60 -2 -8 -6 -35 -9 -60 -3 -25 -10 -70 -16 -100 -6 -30 -13 -68 -15
-85 -3 -16 -10 -52 -15 -80 -5 -27 -12 -63 -15 -80 -5 -36 -44 -221 -52 -250
-3 -11 -5 -30 -6 -42 -1 -13 -5 -23 -10 -23 -4 0 -6 -4 -3 -9 3 -4 1 -23 -4
-42 -6 -19 -13 -47 -15 -64 -3 -16 -10 -43 -15 -60 -5 -16 -12 -41 -14 -55
-20 -97 -86 -338 -106 -390 -6 -14 -12 -34 -14 -45 -2 -11 -16 -54 -31 -95
-30 -87 -34 -98 -36 -108 0 -4 -7 -18 -14 -32 -7 -14 -30 -65 -51 -115 -21
-49 -53 -116 -71 -149 -18 -32 -36 -69 -39 -81 -6 -25 3 -65 14 -63 4 1 21 -4
37 -11 17 -7 35 -14 40 -15 6 -2 17 -5 25 -8 42 -16 198 -58 235 -65 11 -1 40
-8 65 -13 90 -21 215 -33 340 -33 163 0 204 6 390 57 8 3 17 5 20 6 3 1 8 2
13 1 4 0 7 3 7 9 0 5 7 10 15 10 19 0 87 35 160 83 51 34 183 159 235 223 21
26 90 134 90 140 0 3 8 18 18 32 15 23 39 75 92 207 23 55 49 149 44 156 -3 5
-1 9 4 9 5 0 12 12 14 28 3 15 15 72 26 127 11 55 23 116 26 135 10 67 19 143
21 174 2 17 4 31 4 31 14 0 19 587 8 770 -14 206 -30 384 -43 470 -3 22 -8 54
-9 70 -5 46 -16 108 -21 128 -3 9 -1 17 4 17 5 0 9 -6 9 -12 0 -7 13 -71 27
-143 15 -71 29 -144 32 -162 2 -17 10 -62 18 -100 8 -37 12 -71 10 -75 -3 -4
-1 -8 3 -8 5 0 9 -9 10 -19 1 -10 7 -45 13 -77 6 -33 13 -68 15 -79 2 -11 6
-31 9 -45 2 -14 7 -41 10 -60 3 -19 10 -60 16 -90 6 -30 13 -68 16 -85 2 -16
6 -41 9 -55 3 -14 7 -38 10 -55 3 -16 7 -43 10 -60 3 -16 8 -48 11 -70 2 -22
7 -51 10 -65 3 -14 8 -43 10 -65 3 -22 7 -51 10 -65 12 -68 35 -239 40 -305
10 -139 34 -149 181 -79 68 33 116 60 228 131 56 36 78 51 110 75 13 10 26 18
29 18 3 0 14 8 24 17 11 10 32 27 48 38 34 24 271 211 299 237 11 9 32 28 46
40 286 252 489 461 657 673 56 72 106 135 111 141 4 5 14 21 21 35 7 13 16 26
20 29 4 3 24 37 45 75 20 39 41 75 44 80 11 16 49 117 60 160 8 28 11 711 11
2198 0 1186 -2 2157 -4 2157 -2 0 -55 18 -118 41 -62 22 -138 49 -168 59 -50
17 -358 124 -388 135 -7 2 -16 5 -20 6 -4 1 -38 12 -77 26 -79 27 -94 32 -98
32 -1 0 -39 14 -84 30 -45 16 -84 27 -87 23 -3 -3 -6 1 -6 8 0 7 -3 11 -6 7
-3 -3 -28 3 -55 13 -27 11 -49 17 -49 13 0 -4 -5 -2 -12 5 -7 7 -22 12 -33 12
-12 0 -25 3 -29 8 -4 4 -12 8 -17 8 -5 1 -11 3 -14 4 -3 1 -8 3 -12 4 -5 1
-55 17 -113 36 -58 18 -109 34 -115 36 -22 4 -151 46 -170 54 -11 5 -58 20
-105 34 -47 13 -123 36 -170 51 -47 14 -94 28 -104 30 -17 4 -64 18 -151 45
-16 5 -55 16 -85 24 -30 9 -89 25 -130 36 -79 22 -175 49 -200 56 -8 2 -33 8
-55 14 -22 6 -44 12 -50 13 -5 1 -16 6 -22 10 -7 5 -13 6 -13 3 0 -3 -18 1
-39 9 -22 7 -42 11 -44 8 -3 -3 -12 -1 -19 3 -7 5 -17 9 -23 10 -5 1 -48 12
-95 24 -47 12 -94 24 -105 25 -11 1 -20 3 -20 4 0 2 -9 4 -20 6 -11 2 -50 11
-85 20 -36 9 -76 18 -90 21 -14 2 -45 9 -70 14 -25 6 -54 12 -65 15 -11 2 -64
13 -118 24 -54 12 -126 25 -160 31 -74 12 -106 17 -172 30 -27 5 -70 12 -95
15 -25 3 -58 8 -75 10 -16 3 -52 7 -80 10 -27 3 -66 8 -85 10 -76 10 -388 12
-430 4z m419 -3731 c-7 -13 -14 -18 -16 -11 -3 7 2 19 9 27 18 20 22 12 7 -16z
m848 -1080 c-3 -8 -6 -5 -6 6 -1 11 2 17 5 13 3 -3 4 -12 1 -19z m1143 -598
c0 -5 -5 -10 -11 -10 -5 0 -7 5 -4 10 3 6 8 10 11 10 2 0 4 -4 4 -10z"/>
<path d="M4818 7043 c-19 -16 -56 -48 -82 -73 -68 -63 -58 -54 -191 -170 -116
-102 -147 -129 -191 -167 -12 -10 -46 -39 -75 -65 -30 -25 -65 -55 -79 -67
-14 -12 -37 -31 -51 -44 -14 -12 -46 -38 -70 -58 -24 -20 -76 -63 -115 -95
-39 -33 -83 -68 -98 -79 -25 -18 -50 -40 -113 -95 -12 -11 -27 -20 -32 -20 -5
0 -11 -3 -13 -8 -3 -7 -162 -136 -233 -188 -22 -16 -42 -32 -45 -35 -6 -7
-437 -327 -470 -349 -13 -8 -41 -29 -64 -45 -23 -17 -84 -60 -136 -95 -52 -36
-97 -67 -100 -70 -14 -14 -70 -50 -79 -50 -5 0 -11 -3 -13 -7 -4 -9 -65 -53
-73 -53 -3 0 -11 -5 -18 -11 -18 -16 -208 -139 -214 -139 -4 0 -21 -11 -39
-25 -18 -14 -36 -25 -39 -25 -3 0 -21 -11 -39 -25 -18 -14 -36 -25 -40 -25 -4
0 -31 -15 -59 -33 -114 -73 -137 -87 -143 -87 -3 0 -18 -8 -32 -18 -15 -11
-58 -36 -97 -57 -38 -21 -90 -49 -115 -62 -140 -77 -196 -106 -295 -156 -122
-61 -301 -146 -313 -147 -4 -1 -17 -8 -29 -16 -13 -8 -23 -12 -23 -9 0 4 -10
-1 -22 -9 -12 -9 -30 -16 -40 -16 -10 0 -18 -4 -18 -10 0 -5 -7 -10 -15 -10
-8 0 -38 -11 -67 -24 -29 -13 -64 -27 -78 -31 -14 -4 -45 -16 -70 -27 -24 -11
-49 -21 -55 -22 -5 -1 -66 -21 -135 -43 -112 -37 -228 -72 -255 -79 -204 -46
-245 -63 -245 -99 0 -25 96 -202 132 -245 10 -11 18 -23 18 -25 0 -6 51 -86
60 -95 3 -3 32 -39 64 -80 174 -219 393 -386 595 -452 36 -12 69 -23 74 -24 4
-1 8 -2 10 -4 1 -1 11 -3 22 -5 11 -1 38 -6 60 -11 79 -16 335 -9 405 11 8 2
26 6 40 9 35 6 188 55 230 73 93 40 281 137 291 149 6 8 16 14 21 14 20 0 302
198 361 254 15 14 31 26 35 26 4 0 28 19 53 43 25 23 88 80 139 127 136 124
330 323 455 466 33 38 72 81 87 96 14 16 24 28 20 28 -3 0 1 6 9 13 9 6 38 39
65 72 27 33 51 62 54 65 3 3 41 50 84 105 43 55 90 115 104 134 36 46 243 323
262 351 22 31 108 153 118 165 33 44 272 406 272 413 0 6 4 12 8 14 11 4 102
146 102 157 0 5 4 11 8 13 10 4 121 180 120 192 0 5 4 12 10 15 5 3 37 53 72
111 34 58 65 107 69 110 3 3 7 11 9 19 1 7 14 28 27 46 14 17 25 34 25 38 0 3
29 55 65 116 36 61 66 114 66 118 0 5 6 15 13 23 7 8 33 51 56 95 24 44 46 85
50 90 26 36 90 167 90 184 0 22 -35 51 -61 51 -9 0 -32 -12 -51 -27z"/>
</g>
</svg>
